<?xml version="1.0" standalone="no"?>
<!DOCTYPE svg PUBLIC "-//W3C//DTD SVG 20010904//EN"
 "http://www.w3.org/TR/2001/REC-SVG-20010904/DTD/svg10.dtd">
<svg version="1.0" xmlns="http://www.w3.org/2000/svg"
 width="512.000000pt" height="512.000000pt" viewBox="0 0 512.000000 512.000000"
 preserveAspectRatio="xMidYMid meet">
<metadata>
Created by potrace 1.11, written by Peter Selinger 2001-2013
</metadata>
<g transform="translate(0.000000,512.000000) scale(0.100000,-0.100000)"
fill="#000000" stroke="none">
<path d="M2389 4966 c-2 -3 -41 -7 -85 -11 -65 -5 -230 -34 -334 -59 -316 -77
-674 -256 -927 -464 -65 -53 -70 -60 -56 -75 14 -14 13 -17 -7 -39 -13 -12
-20 -17 -16 -10 4 6 4 12 -1 12 -14 -1 -58 -28 -59 -37 -2 -23 -17 -44 -24
-33 -4 7 -12 0 -20 -19 -6 -17 -20 -33 -29 -36 -20 -6 -181 -160 -181 -172 0
-5 -8 -16 -17 -25 -10 -8 -26 -26 -35 -39 -29 -37 -20 -67 11 -36 10 10 11 8
5 -8 -16 -45 -39 -63 -74 -59 -33 3 -350 97 -371 109 -5 4 -9 -85 -9 -224 0
-262 -11 -233 103 -271 38 -13 71 -28 73 -35 3 -6 -3 -31 -12 -55 -31 -85 -43
-131 -33 -125 5 4 8 -6 7 -25 -1 -17 -5 -33 -9 -36 -4 -2 -5 -12 -2 -23 2 -10
-3 -25 -11 -34 -9 -8 -22 -43 -30 -77 -13 -55 -13 -61 0 -56 9 3 22 0 30 -8
16 -17 50 -10 58 11 3 8 1 11 -4 8 -17 -10 -25 27 -9 39 8 6 13 20 11 30 -2
10 3 23 11 27 8 5 18 25 22 46 4 20 15 54 25 74 11 20 16 39 13 43 -4 3 -1 6
5 6 7 0 12 -5 12 -11 0 -5 4 -8 9 -4 6 3 9 13 8 23 -2 30 43 111 58 106 11 -5
10 -13 -5 -47 -10 -23 -23 -41 -29 -39 -6 1 -11 -5 -11 -13 0 -9 6 -12 17 -8
14 5 15 1 10 -36 -3 -24 -15 -53 -26 -65 -12 -12 -18 -26 -14 -30 4 -4 -1 -12
-11 -18 -12 -7 -14 -13 -7 -17 26 -16 12 -93 -31 -179 -11 -22 -13 -22 -19 -5
-7 16 -8 15 -8 -5 -1 -12 -19 -42 -41 -66 -22 -24 -40 -52 -40 -63 0 -11 -8
-27 -17 -34 -14 -12 -16 -12 -11 2 3 9 2 22 -2 29 -4 7 -3 23 2 34 34 66 34
66 8 66 -17 0 -20 -7 -21 -42 -3 -71 -4 -76 -13 -85 -5 -5 -7 -1 -3 9 11 31
-11 29 -27 -3 -10 -20 -12 -37 -7 -48 4 -9 11 -36 15 -61 4 -24 12 -51 19 -59
9 -12 9 -13 -1 -7 -14 8 -15 -18 -2 -49 8 -18 9 -18 10 5 0 22 4 19 24 -20 12
-25 22 -57 21 -72 -2 -19 2 -28 12 -28 13 0 13 3 3 15 -7 9 -8 15 -2 15 14 0
22 -24 12 -41 -5 -8 -4 -19 2 -26 6 -7 8 -13 4 -13 -4 0 1 -11 10 -25 10 -16
12 -25 5 -25 -8 0 -7 -8 3 -27 13 -27 14 -102 1 -123 -3 -6 -1 -10 5 -10 7 0
9 -7 6 -16 -4 -9 -1 -23 5 -30 9 -11 8 -14 -1 -14 -9 0 -9 -4 -3 -12 15 -19
24 -76 13 -83 -14 -8 -51 46 -45 66 4 11 -1 22 -12 28 -10 6 -12 11 -5 11 14
0 6 51 -11 61 -16 11 2 29 21 22 15 -6 15 -5 2 11 -8 10 -16 13 -18 8 -2 -6
-10 -8 -18 -5 -9 3 -14 -2 -15 -13 0 -16 -2 -15 -9 4 -11 27 -20 29 -13 2 3
-10 15 -26 28 -34 18 -12 22 -22 19 -44 -4 -22 0 -31 13 -36 12 -5 14 -9 6
-14 -10 -6 -9 -14 1 -33 18 -35 29 -109 16 -109 -5 0 -10 1 -10 3 0 1 -7 20
-15 42 l-14 40 -1 -32 c0 -31 21 -63 42 -63 7 0 7 -5 -1 -14 -6 -7 -9 -20 -6
-28 3 -8 1 -27 -5 -42 -9 -24 -8 -27 4 -23 9 4 18 1 22 -5 4 -7 3 -8 -4 -4
-21 13 -13 -14 24 -80 20 -35 34 -70 31 -76 -2 -7 -12 3 -21 22 -11 23 -14 27
-10 10 3 -14 8 -36 11 -50 3 -14 16 -35 29 -46 13 -12 24 -25 24 -29 0 -4 26
-50 58 -102 31 -53 62 -105 69 -116 6 -11 15 -22 20 -26 5 -3 15 -20 22 -38 7
-17 21 -39 32 -49 10 -9 19 -23 19 -31 0 -7 6 -13 13 -13 16 0 61 -49 53 -57
-3 -3 8 -23 25 -45 17 -21 29 -42 26 -45 -4 -3 5 -14 18 -25 14 -11 25 -26 25
-34 0 -10 -8 -7 -27 10 -15 14 -30 23 -33 20 -9 -10 52 -52 68 -47 11 5 13 1
8 -14 -4 -14 -1 -23 9 -27 9 -3 13 -11 10 -16 -4 -6 -3 -9 2 -8 8 3 98 -80 98
-91 1 -15 127 -123 233 -201 l35 -25 -1 -222 0 -223 144 0 144 0 0 139 0 139
58 -27 c139 -68 416 -161 522 -177 19 -3 43 -7 52 -10 49 -14 177 -28 243 -27
107 3 121 2 154 -9 31 -10 289 -5 323 7 7 2 38 6 68 9 30 3 66 8 80 11 14 2
50 10 80 16 30 5 65 12 78 15 110 22 416 134 510 186 23 12 32 14 33 5 0 -6 1
-72 1 -144 l1 -133 143 0 144 0 0 233 0 232 40 25 c48 30 54 48 6 19 -29 -17
-34 -17 -39 -4 -4 8 -3 14 1 14 20 -3 28 3 28 22 0 14 -5 19 -18 16 -45 -12 0
36 50 54 18 6 32 15 32 20 0 4 6 6 13 3 8 -3 26 10 41 31 15 19 35 35 45 35
24 0 81 29 81 41 0 13 -13 11 -30 -3 -26 -24 24 36 70 82 24 25 45 49 45 53 0
5 7 14 15 20 9 7 29 30 45 52 16 22 47 61 67 86 41 49 46 62 23 52 -10 -3 -3
16 19 53 20 33 38 57 40 54 5 -6 33 30 65 83 l23 37 -26 0 c-15 0 -26 -6 -26
-14 0 -16 -38 -66 -51 -66 -4 0 -3 11 3 25 6 14 17 25 24 25 17 0 28 51 13 61
-12 7 -49 -6 -49 -17 0 -3 4 -3 9 1 5 3 13 1 16 -5 8 -13 -14 -42 -26 -34 -5
3 -6 -2 -3 -10 3 -9 1 -16 -6 -16 -6 0 -9 -4 -5 -9 3 -5 -1 -11 -9 -13 -9 -2
-46 -41 -84 -88 -38 -47 -73 -85 -78 -85 -14 0 -113 -79 -113 -90 -1 -17 -52
-66 -61 -60 -6 3 -7 0 -5 -7 3 -8 -6 -18 -25 -25 -16 -6 -30 -17 -30 -25 0 -7
-14 -19 -30 -26 -17 -8 -33 -24 -36 -37 -6 -23 -28 -35 -51 -28 -8 3 -13 23
-13 50 0 37 6 50 35 81 23 25 33 43 29 55 -3 10 0 24 6 32 9 11 7 22 -10 50
-12 19 -28 35 -36 35 -8 0 -14 5 -14 10 0 6 4 10 9 10 5 0 12 8 16 18 5 14 4
15 -6 5 -23 -23 -29 -14 -29 50 0 63 7 77 52 112 7 6 22 17 32 25 18 14 19 13
13 -15 -8 -42 5 -61 23 -35 8 11 18 20 22 20 14 0 9 -23 -9 -42 -15 -16 -15
-18 -1 -13 23 9 88 119 95 159 8 48 -20 62 -70 37 -25 -12 -34 -14 -30 -5 3 7
13 16 23 19 10 3 24 13 32 22 11 14 11 16 -1 9 -8 -5 -12 -5 -9 0 2 5 12 28
22 51 10 24 23 43 28 43 6 0 5 -6 -2 -15 -7 -8 -8 -15 -3 -15 14 0 64 61 58
71 -9 13 14 49 30 49 8 0 15 5 15 10 0 6 -5 10 -11 10 -6 0 -2 15 9 33 11 17
32 56 48 86 22 43 29 50 34 36 6 -16 7 -16 12 -3 4 9 1 21 -5 28 -9 10 -9 11
0 6 9 -5 12 -1 11 11 -2 17 18 68 63 158 19 39 19 39 13 8 -3 -18 -7 -57 -9
-87 -1 -30 -6 -60 -11 -67 -6 -12 -5 -12 9 0 9 7 17 24 17 37 0 13 9 31 19 41
11 10 21 25 23 33 2 8 12 33 24 56 15 30 18 46 11 59 -7 13 -6 16 2 11 7 -5
11 1 11 13 0 23 18 29 25 9 2 -7 6 -28 9 -46 6 -45 16 -53 16 -14 0 17 5 34
10 37 13 8 13 -46 0 -79 -11 -29 -3 -34 15 -10 10 14 12 12 13 -17 4 -74 10
-120 16 -126 3 -4 6 1 6 11 0 9 11 44 25 79 14 34 26 73 27 87 1 14 8 34 15
44 10 16 10 21 -4 31 -11 8 -13 14 -5 19 7 4 12 1 13 -6 1 -7 4 -2 8 12 5 14
4 32 0 41 -5 9 -2 36 6 61 7 26 11 48 9 51 -7 7 -12 43 -19 150 -3 54 -9 108
-13 120 -7 20 -7 48 -3 209 1 36 4 46 15 42 12 -5 12 2 4 38 -6 24 -10 55 -10
70 0 15 -4 30 -9 34 -5 3 -7 15 -3 26 4 13 2 18 -4 14 -5 -3 -12 6 -15 19 -2
14 0 28 4 31 5 3 2 12 -6 20 -16 17 -21 39 -6 30 5 -3 12 1 15 10 8 20 8 24
-1 23 -27 -4 -43 3 -43 21 0 11 4 20 8 20 4 0 6 15 4 33 -3 23 0 34 10 34 12
1 197 64 276 95 21 8 32 19 33 33 1 27 1 349 0 402 l-1 42 -86 -30 c-47 -16
-124 -41 -172 -55 -218 -65 -221 -65 -251 -4 -15 31 -16 40 -5 44 7 3 16 -4
19 -15 4 -10 11 -19 16 -19 5 0 9 -7 9 -15 0 -8 4 -15 10 -15 5 0 7 8 3 18
-10 29 -46 63 -61 57 -9 -3 -12 1 -7 14 3 11 1 22 -5 26 -5 3 -10 20 -10 36 0
26 -3 29 -20 24 -12 -4 -20 -2 -20 5 0 6 5 8 10 5 28 -17 4 16 -46 62 -30 29
-53 57 -49 63 11 18 -5 50 -26 50 -10 0 -19 5 -19 12 0 6 -2 9 -5 6 -3 -3 -20
9 -38 26 -69 67 -133 118 -160 128 -21 8 -25 13 -16 19 9 5 5 10 -14 14 -15 4
-27 11 -27 16 0 8 -98 83 -110 84 -22 2 -78 30 -69 36 6 3 -9 19 -34 35 -24
16 -42 35 -39 42 2 7 0 12 -5 11 -15 -2 -53 13 -53 22 0 5 -7 9 -15 9 -8 0
-15 5 -15 11 0 6 -9 8 -22 4 -16 -4 -19 -3 -10 3 22 15 -140 89 -340 156 -42
14 -87 28 -100 31 -13 3 -52 12 -88 20 -69 16 -195 40 -270 50 -57 8 -464 17
-471 11z m-973 -392 c-4 -10 -13 -14 -25 -11 -14 3 -18 1 -14 -9 3 -8 -1 -14
-8 -15 -34 -2 -53 -9 -75 -30 -17 -16 -24 -18 -24 -8 0 8 -8 2 -17 -13 -10
-15 -30 -33 -46 -39 -16 -7 -42 -25 -58 -41 -25 -25 -29 -27 -26 -10 2 11 27
39 57 63 30 23 57 45 60 48 10 12 173 91 178 87 2 -3 2 -13 -2 -22z m2498 -70
c9 -3 16 -11 16 -16 0 -6 -6 -5 -15 2 -8 7 -15 8 -15 3 0 -5 29 -33 65 -62 36
-29 65 -55 65 -58 0 -6 -17 5 -87 56 -60 42 -72 59 -56 74 8 8 8 8 27 1z
m-2784 -48 c0 -3 -4 -8 -10 -11 -5 -3 -10 -1 -10 4 0 6 5 11 10 11 6 0 10 -2
10 -4z m-17 -43 c11 -10 -24 -43 -45 -43 -10 0 -18 7 -18 15 0 8 6 12 14 9 7
-3 16 2 19 10 7 17 19 21 30 9z m-58 -63 c6 -10 -32 -49 -48 -50 -5 0 0 14 10
30 18 32 28 37 38 20z m3074 -52 c2 -16 -15 -6 -39 25 l-25 32 32 -25 c18 -14
32 -28 32 -32z m52 -5 c13 -16 12 -17 -3 -4 -17 13 -22 21 -14 21 2 0 10 -8
17 -17z m-3211 -22 c0 -5 -7 -12 -16 -15 -24 -9 -28 -7 -14 9 14 17 30 20 30
6z m3261 -28 c13 -16 12 -17 -3 -4 -17 13 -22 21 -14 21 2 0 10 -8 17 -17z
m-31 -3 c0 -5 -4 -10 -10 -10 -5 0 -10 5 -10 10 0 6 5 10 10 10 6 0 10 -4 10
-10z m-3110 -12 c0 -17 -70 -77 -98 -84 -29 -8 -43 4 -20 17 9 5 36 25 60 43
47 38 58 42 58 24z m-145 -26 c-3 -3 -11 0 -18 7 -9 10 -8 11 6 5 10 -3 15 -9
12 -12z m330 -34 c-59 -54 -119 -98 -131 -98 -3 0 -4 6 -1 14 3 7 0 20 -6 27
-10 10 -9 11 3 2 12 -9 25 -3 65 33 28 25 61 51 75 58 53 29 51 14 -5 -36z
m-404 -23 c-17 -20 -31 -33 -31 -29 0 12 52 76 57 70 3 -3 -8 -21 -26 -41z
m-89 -92 c-34 -43 -72 -80 -72 -69 0 8 90 106 97 106 3 0 -9 -17 -25 -37z
m-22 21 c0 -8 -92 -95 -97 -91 -5 5 80 96 90 97 4 0 7 -3 7 -6z m342 -10 c-12
-8 -22 -20 -22 -26 0 -6 9 -3 20 7 11 10 22 16 25 13 3 -2 -13 -19 -35 -37
-22 -17 -40 -27 -40 -21 0 6 -5 8 -11 4 -8 -4 -7 -9 2 -14 10 -7 10 -12 -1
-25 -7 -9 -22 -20 -32 -26 -15 -8 -17 -6 -14 21 2 17 5 32 7 34 25 24 106 85
114 86 5 0 -1 -7 -13 -16z m3288 -64 c6 -11 8 -20 6 -20 -3 0 -10 9 -16 20 -6
11 -8 20 -6 20 3 0 10 -9 16 -20z m60 10 c0 -5 -2 -10 -4 -10 -3 0 -8 5 -11
10 -3 6 -1 10 4 10 6 0 11 -4 11 -10z m-3795 -50 c-3 -5 -11 -10 -16 -10 -6 0
-7 5 -4 10 3 6 11 10 16 10 6 0 7 -4 4 -10z m3801 -27 c-3 -8 2 -26 12 -41 16
-25 16 -26 -2 -19 -15 6 -17 4 -13 -15 5 -21 5 -21 -7 -5 -7 9 -11 28 -9 41 3
13 0 27 -6 30 -6 4 -11 12 -11 18 0 6 7 5 17 -3 15 -12 16 -12 10 4 -4 11 -3
16 4 12 6 -4 8 -14 5 -22z m-3528 -25 c-19 -24 -44 -47 -56 -53 -12 -5 -29
-24 -39 -43 -15 -28 -22 -32 -43 -27 -14 4 -26 10 -28 15 -2 5 -10 6 -18 3
-29 -11 -14 32 24 67 62 59 67 61 95 51 20 -8 29 -6 43 10 9 10 26 19 37 19
17 0 15 -5 -15 -42z m-248 7 c0 -2 -18 -22 -40 -44 -30 -29 -40 -35 -40 -22 0
20 43 64 53 54 4 -3 7 -1 7 5 0 7 5 12 10 12 6 0 10 -2 10 -5z m450 -86 c-7
-11 -14 -19 -16 -16 -7 7 7 37 17 37 6 0 5 -9 -1 -21z m3383 1 c7 0 4 -5 -6
-11 -21 -12 -51 -4 -42 12 4 6 14 8 22 5 8 -3 20 -6 26 -6z m-3444 -66 c-45
-47 -59 -43 -18 4 19 21 38 37 42 34 5 -2 -6 -19 -24 -38z m-628 -417 c-10 -9
-11 -8 -5 6 3 10 9 15 12 12 3 -3 0 -11 -7 -18z m4223 7 c3 -8 2 -12 -4 -9 -6
3 -10 10 -10 16 0 14 7 11 14 -7z m-1090 -152 c3 -5 -1 -9 -9 -9 -8 0 -15 4
-15 9 0 4 4 8 9 8 6 0 12 -4 15 -8z m-3265 -122 c-6 -16 -12 -30 -14 -30 -3 0
1 44 4 58 1 1 5 2 10 2 6 0 6 -12 0 -30z m3355 -91 c-8 -14 -24 -10 -24 6 0 9
6 12 15 9 8 -4 12 -10 9 -15z m351 -16 c4 -21 13 -58 20 -83 13 -41 21 -78 29
-135 3 -22 -30 -34 -71 -27 -22 4 -23 7 -23 136 0 73 3 136 7 139 16 17 33 4
38 -30z m-3755 -244 c0 -5 -5 -9 -11 -9 -5 0 -7 5 -4 10 3 6 1 10 -4 10 -6 0
-11 5 -11 11 0 8 5 8 15 -1 8 -7 15 -16 15 -21z m77 -16 c-3 -10 -5 -4 -5 12
0 17 2 24 5 18 2 -7 2 -21 0 -30z m-107 2 c0 -8 -4 -17 -10 -20 -6 -4 -10 5
-10 20 0 15 4 24 10 20 6 -3 10 -12 10 -20z m4267 -337 c-3 -7 -5 -2 -5 12 0
14 2 19 5 13 2 -7 2 -19 0 -25z m-20 -140 c-3 -8 -6 -5 -6 6 -1 11 2 17 5 13
3 -3 4 -12 1 -19z m-2961 -170 c1 -15 -1 -27 -4 -27 -21 3 -21 -4 -4 -29 29
-40 32 -68 7 -64 -20 2 -20 2 1 -16 21 -18 18 -26 -13 -45 -9 -6 -11 -3 -7 8
4 8 1 21 -5 29 -14 16 -12 156 3 175 8 11 8 13 -1 7 -15 -8 -16 -5 -6 20 5 15
8 14 16 -7 5 -13 11 -36 13 -51z m-1155 -107 c-7 -13 -8 -22 -1 -26 12 -8 13
-25 1 -25 -5 0 -11 8 -14 18 -3 9 -10 32 -16 51 -10 33 -10 33 9 16 19 -18 20
-17 21 6 2 23 2 23 6 2 2 -12 -1 -31 -6 -42z m1189 -82 c0 -6 -4 -7 -10 -4 -5
3 -10 11 -10 16 0 6 5 7 10 4 6 -3 10 -11 10 -16z m-1220 -13 c0 -3 -4 -8 -10
-11 -5 -3 -10 -1 -10 4 0 6 5 11 10 11 6 0 10 -2 10 -4z m27 -28 c-3 -8 -6 -5
-6 6 -1 11 2 17 5 13 3 -3 4 -12 1 -19z m20 0 c-3 -8 -6 -5 -6 6 -1 11 2 17 5
13 3 -3 4 -12 1 -19z m3680 -140 c-3 -8 -6 -5 -6 6 -1 11 2 17 5 13 3 -3 4
-12 1 -19z m-3603 -134 c3 -8 2 -12 -4 -9 -6 3 -10 10 -10 16 0 14 7 11 14 -7z
m34 -19 c-3 -3 -9 2 -12 12 -6 14 -5 15 5 6 7 -7 10 -15 7 -18z m-4 -51 c3 -8
2 -12 -4 -9 -6 3 -10 10 -10 16 0 14 7 11 14 -7z m71 -63 c3 -6 4 -11 1 -11
-10 0 -35 57 -28 64 3 4 10 -4 13 -18 4 -13 10 -29 14 -35z m3545 0 c0 -6 -4
-13 -10 -16 -5 -3 -10 1 -10 9 0 9 5 16 10 16 6 0 10 -4 10 -9z m-3451 -121
c28 -38 51 -72 51 -76 0 -13 -29 -34 -35 -24 -3 5 -1 10 5 10 11 0 -3 30 -59
123 -36 59 -17 43 38 -33z m3861 46 c0 -2 -8 -10 -17 -17 -16 -13 -17 -12 -4
4 13 16 21 21 21 13z m-855 -252 c-14 -13 -22 -24 -18 -24 5 0 15 6 21 12 17
17 31 -4 24 -38 -3 -19 -19 -32 -61 -52 -31 -14 -60 -28 -65 -30 -5 -3 0 10
10 27 10 17 21 31 24 31 4 0 15 7 26 16 18 14 18 15 -6 9 -24 -6 -24 -5 -6 9
18 14 15 21 -6 17 -22 -3 -3 21 30 38 47 24 61 17 27 -15z m-2880 6 c3 -5 1
-10 -4 -10 -6 0 -11 5 -11 10 0 6 2 10 4 10 3 0 8 -4 11 -10z m2766 -128 c-13
-24 -41 -47 -41 -34 0 5 7 12 15 16 8 3 15 12 15 21 0 8 5 15 10 15 7 0 7 -6
1 -18z m-2703 -37 c-3 -3 -9 2 -12 12 -6 14 -5 15 5 6 7 -7 10 -15 7 -18z
m2782 -125 c0 -5 -7 -10 -15 -10 -10 0 -15 -7 -13 -17 2 -13 -12 -23 -52 -39
-66 -26 -109 -38 -95 -27 6 4 10 14 10 21 0 8 17 20 38 27 31 11 37 11 37 -2
0 -8 4 -12 9 -9 5 3 7 14 4 25 -4 15 3 21 34 29 21 5 39 10 41 11 1 1 2 -3 2
-9z m477 -12 c-3 -8 -6 -5 -6 6 -1 11 2 17 5 13 3 -3 4 -12 1 -19z m-428 -19
c-20 -13 -29 -11 -29 5 0 16 33 27 39 13 2 -5 -3 -13 -10 -18z m323 -31 c-18
-19 -22 -20 -22 -6 0 9 8 21 17 27 27 15 29 3 5 -21z m-571 -27 c-8 -5 -11
-13 -7 -19 3 -6 1 -14 -5 -18 -8 -4 -9 -3 -5 4 11 19 -17 14 -75 -12 -64 -29
-115 -40 -124 -26 -3 5 0 10 7 10 7 0 47 16 88 34 65 29 158 50 121 27z m149
-120 c0 -4 -29 -16 -65 -26 -36 -9 -65 -21 -65 -27 0 -5 -4 -6 -10 -3 -18 11
-11 32 13 40 102 32 127 35 127 16z m110 -26 c0 -6 -56 -35 -67 -35 -4 0 6 9
22 20 29 19 45 25 45 15z m-90 -39 c0 -3 -4 -8 -10 -11 -5 -3 -10 -1 -10 4 0
6 5 11 10 11 6 0 10 -2 10 -4z m92 -55 c-4 -30 -34 -50 -75 -52 -21 0 -21 -1
-3 -8 19 -7 18 -8 -5 -15 -13 -5 -26 -9 -29 -10 -3 -1 -15 -5 -27 -10 -13 -4
-23 -11 -23 -16 0 -5 -7 -6 -17 -3 -11 4 -14 3 -9 -5 4 -7 3 -12 -3 -12 -5 0
-16 -3 -25 -6 -9 -3 -16 -1 -16 5 0 6 28 24 62 38 33 15 56 29 50 31 -6 2 -25
-4 -42 -13 -32 -17 -50 -13 -50 10 0 21 19 28 67 26 31 -1 43 3 43 13 0 17 30
30 30 13 0 -7 10 0 21 16 28 37 57 37 51 -2z m-127 5 c-11 -8 -26 -11 -35 -8
-11 5 -9 8 10 13 40 11 45 10 25 -5z m-99 -41 c-28 -22 -46 -25 -46 -6 0 10
40 30 60 30 9 0 4 -9 -14 -24z m-341 -25 c-3 -5 -12 -10 -18 -10 -7 0 -6 4 3
10 19 12 23 12 15 0z m288 -7 c14 -8 7 -22 -8 -17 -8 4 -22 1 -29 -5 -11 -9
-15 -9 -18 0 -3 8 -27 3 -78 -16 -117 -42 -286 -69 -278 -44 3 8 17 13 32 12
14 -1 24 2 21 7 -3 5 13 9 37 9 50 -1 78 4 133 25 22 8 50 15 62 16 12 0 28 7
35 15 12 13 66 12 91 -2z m-73 -53 c0 -5 -5 -10 -11 -10 -5 0 -7 5 -4 10 3 6
8 10 11 10 2 0 4 -4 4 -10z m-953 -176 c-3 -3 -12 -4 -19 -1 -8 3 -5 6 6 6 11
1 17 -2 13 -5z"/>
<path d="M3470 750 c-13 -8 -12 -10 3 -10 9 0 17 5 17 10 0 12 -1 12 -20 0z"/>
<path d="M3330 426 c0 -2 7 -7 16 -10 8 -3 12 -2 9 4 -6 10 -25 14 -25 6z"/>
<path d="M4350 4161 c0 -5 5 -13 10 -16 6 -3 10 -2 10 4 0 5 -4 13 -10 16 -5
3 -10 2 -10 -4z"/>
<path d="M4750 3385 c0 -6 9 -23 21 -40 19 -28 20 -28 14 -5 -7 26 -35 62 -35
45z"/>
<path d="M286 3364 c-4 -9 -4 -19 -1 -22 2 -3 7 3 11 12 4 9 4 19 1 22 -2 3
-7 -3 -11 -12z"/>
<path d="M4705 3332 c-9 -9 -5 -20 9 -25 8 -3 16 2 19 12 4 16 -16 25 -28 13z"/>
<path d="M4778 3273 c6 -2 12 -13 12 -24 0 -10 5 -19 10 -19 6 0 10 6 10 13 0
16 -20 37 -34 36 -6 0 -5 -3 2 -6z"/>
<path d="M251 3254 c0 -11 3 -14 6 -6 3 7 2 16 -1 19 -3 4 -6 -2 -5 -13z"/>
<path d="M4725 3260 c-3 -5 -2 -10 4 -10 5 0 13 5 16 10 3 6 2 10 -4 10 -5 0
-13 -4 -16 -10z"/>
<path d="M4733 3223 c-9 -16 -9 -30 -3 -50 1 -5 6 8 10 27 10 40 6 51 -7 23z"/>
<path d="M4800 3210 c0 -5 5 -10 10 -10 6 0 10 5 10 10 0 6 -4 10 -10 10 -5 0
-10 -4 -10 -10z"/>
<path d="M4800 3181 c0 -16 12 -41 19 -41 12 0 7 39 -6 44 -7 3 -13 1 -13 -3z"/>
<path d="M4824 3094 c4 -9 2 -22 -4 -29 -7 -8 -4 -17 10 -30 11 -10 20 -25 20
-33 0 -18 13 -7 16 13 1 8 -5 15 -13 15 -13 0 -13 2 -2 17 11 13 11 17 2 20
-7 3 -13 13 -13 24 0 10 -5 19 -11 19 -6 0 -8 -7 -5 -16z"/>
<path d="M4785 3050 c2 -41 14 -50 13 -11 -1 18 -4 34 -8 36 -4 2 -6 -9 -5
-25z"/>
<path d="M4855 2950 c-4 -6 -11 -8 -16 -5 -5 4 -9 0 -9 -7 0 -8 9 -14 20 -14
13 0 20 7 20 18 0 20 -6 23 -15 8z"/>
<path d="M247 2943 c-10 -9 -8 -33 2 -33 5 0 11 9 14 20 5 20 -3 26 -16 13z"/>
<path d="M300 2885 c-6 -15 -8 -30 -6 -33 3 -3 10 8 16 23 6 15 8 30 6 33 -3
3 -10 -8 -16 -23z"/>
<path d="M4862 2879 c-2 -20 2 -27 11 -23 17 6 19 41 3 47 -7 3 -13 -6 -14
-24z"/>
<path d="M4881 2833 c-1 -12 -6 -25 -12 -29 -8 -4 -7 -9 2 -15 12 -8 11 -11
-1 -19 -11 -7 -11 -10 -2 -10 7 0 11 -4 7 -9 -3 -6 4 -15 15 -21 22 -12 27 -1
8 18 -14 14 -21 65 -7 57 11 -7 11 3 -1 30 -8 19 -9 19 -9 -2z"/>
<path d="M4900 2700 c0 -6 -4 -9 -9 -6 -11 7 -19 -53 -10 -85 6 -20 7 -21 9
-4 1 14 3 16 7 6 3 -8 -2 -20 -12 -27 -19 -14 -17 -63 4 -102 17 -32 22 -27
17 18 -2 22 0 56 6 76 6 23 6 40 0 46 -5 5 -6 24 -2 44 4 19 4 37 -1 40 -5 3
-9 0 -9 -6z"/>
<path d="M4809 2628 c-7 -24 -7 -48 0 -52 4 -3 8 8 9 24 0 17 -1 30 -4 30 -2
0 -4 -1 -5 -2z"/>
<path d="M4897 2443 c-10 -10 -8 -33 2 -33 6 0 9 9 8 20 -1 23 -1 22 -10 13z"/>
<path d="M4802 2400 c0 -14 2 -19 5 -12 2 6 2 18 0 25 -3 6 -5 1 -5 -13z"/>
<path d="M255 2359 c6 -33 15 -36 15 -6 0 15 -4 27 -9 27 -6 0 -8 -10 -6 -21z"/>
<path d="M209 2323 c6 -13 9 -34 5 -48 -5 -19 -2 -25 11 -25 10 0 13 5 9 12
-4 7 -8 22 -9 35 0 12 -7 28 -14 35 -11 11 -12 9 -2 -9z"/>
<path d="M253 2293 c2 -31 17 -48 17 -20 1 6 8 0 16 -15 14 -27 34 -38 34 -20
0 13 -50 69 -51 57 0 -5 -4 -1 -9 10 -7 16 -8 14 -7 -12z"/>
<path d="M177 2279 c18 -35 27 -33 17 5 -3 14 -12 26 -19 26 -11 0 -10 -6 2
-31z"/>
<path d="M181 2224 c0 -11 3 -14 6 -6 3 7 2 16 -1 19 -3 4 -6 -2 -5 -13z"/>
<path d="M4576 2175 c-3 -8 -1 -15 4 -15 6 0 10 7 10 15 0 8 -2 15 -4 15 -2 0
-6 -7 -10 -15z"/>
<path d="M225 2152 c3 -44 5 -48 14 -33 9 14 4 48 -9 56 -4 2 -6 -8 -5 -23z"/>
<path d="M4860 2129 c0 -11 4 -18 10 -14 5 3 7 12 3 20 -7 21 -13 19 -13 -6z"/>
<path d="M4708 1991 c-10 -22 -27 -76 -38 -122 -25 -98 -45 -140 -63 -133 -8
3 -26 0 -40 -5 -20 -8 -27 -7 -27 1 0 9 -3 9 -12 0 -8 -8 -8 -15 2 -27 10 -12
9 -20 -5 -41 -22 -33 -9 -46 16 -15 17 20 19 21 19 5 0 -11 -7 -28 -15 -38
-25 -33 -17 -36 33 -9 45 25 112 85 112 102 0 4 14 17 30 29 23 17 30 19 30 8
0 -26 -12 -46 -27 -46 -10 0 -14 -7 -10 -20 3 -10 0 -21 -6 -23 -6 -2 -7 -9
-3 -16 6 -9 14 -5 32 14 20 22 24 38 27 100 1 52 6 75 15 75 6 0 12 7 12 16 0
8 -4 12 -10 9 -5 -3 -11 -3 -11 2 -1 4 -3 19 -5 33 -5 44 -20 105 -30 122 -8
15 -12 11 -26 -21z"/>
<path d="M4398 2004 c12 -22 2 -74 -14 -74 -8 0 -15 -7 -15 -15 -6 -70 -18
-127 -28 -135 -3 -3 -18 -21 -33 -41 -24 -33 -25 -36 -8 -32 11 3 18 9 15 13
-3 5 6 17 19 27 25 20 61 107 51 124 -4 5 -1 9 4 9 6 0 11 7 11 15 0 8 5 15
11 15 5 0 8 4 5 8 -3 4 -1 24 3 44 6 23 5 40 -2 47 -16 16 -29 13 -19 -5z"/>
<path d="M4816 1985 c-3 -9 -6 -22 -5 -28 0 -7 5 -1 10 12 5 13 8 26 5 28 -2
2 -6 -3 -10 -12z"/>
<path d="M4580 1980 c0 -12 28 -21 35 -11 2 5 -4 11 -15 14 -11 3 -20 2 -20
-3z"/>
<path d="M4585 1941 c-8 -14 -2 -72 7 -63 13 13 21 72 10 72 -6 0 -13 -4 -17
-9z"/>
<path d="M4876 1935 c4 -8 8 -15 10 -15 2 0 4 7 4 15 0 8 -4 15 -10 15 -5 0
-7 -7 -4 -15z"/>
<path d="M4786 1894 c-9 -23 -2 -28 13 -10 7 8 8 17 3 20 -6 3 -13 -1 -16 -10z"/>
<path d="M4379 1773 c-1 -10 -2 -27 -3 -38 -2 -20 -17 -61 -36 -100 -6 -11
-12 -31 -15 -44 -2 -13 -12 -32 -21 -42 -9 -10 -13 -22 -10 -28 4 -5 -3 -27
-14 -48 -11 -21 -20 -45 -20 -53 0 -9 -14 -29 -31 -46 -17 -16 -53 -62 -80
-101 -27 -40 -61 -80 -75 -89 -31 -21 -24 -30 9 -12 21 11 191 188 222 230 21
29 46 78 39 78 -3 0 -1 7 6 15 16 19 3 40 -16 24 -17 -14 -18 -3 -3 40 9 25
16 32 31 28 15 -4 18 -2 12 11 -11 27 -7 54 13 81 21 30 24 102 6 108 -7 3
-14 -4 -14 -14z"/>
<path d="M4677 1643 c-4 -3 -7 -11 -7 -17 0 -6 5 -5 12 2 6 6 9 14 7 17 -3 3
-9 2 -12 -2z"/>
<path d="M4176 1615 c-3 -8 -1 -15 4 -15 6 0 10 7 10 15 0 8 -2 15 -4 15 -2 0
-6 -7 -10 -15z"/>
<path d="M4394 1520 c-29 -11 -40 -30 -19 -30 15 0 15 -4 -4 -35 -11 -19 -16
-37 -11 -40 12 -7 -20 -45 -37 -45 -12 0 -14 -5 -17 -37 -2 -17 -73 -108 -107
-137 -27 -23 -27 -24 -7 -29 28 -8 51 6 83 47 19 25 32 32 55 31 16 -1 31 4
34 11 3 9 -4 12 -22 9 -15 -1 -30 -1 -34 2 -13 7 20 61 52 84 16 12 27 25 25
29 -3 4 4 10 14 13 15 4 18 12 14 46 -3 23 -1 41 5 41 5 0 9 11 8 25 -1 27 -1
28 -32 15z m-72 -182 c-7 -7 -12 -8 -12 -2 0 14 12 26 19 19 2 -3 -1 -11 -7
-17z"/>
<path d="M4680 1424 c0 -8 5 -12 10 -9 6 4 8 11 5 16 -9 14 -15 11 -15 -7z"/>
<path d="M4064 1325 c-9 -14 -14 -28 -11 -31 3 -3 13 8 22 25 19 37 12 41 -11
6z"/>
<path d="M4361 1324 c-12 -27 -11 -28 4 -12 10 9 16 21 13 28 -2 7 -10 -1 -17
-16z"/>
<path d="M500 1331 c0 -5 5 -13 10 -16 6 -3 10 -2 10 4 0 5 -4 13 -10 16 -5 3
-10 2 -10 -4z"/>
<path d="M4550 1260 c0 -5 5 -10 10 -10 6 0 10 5 10 10 0 6 -4 10 -10 10 -5 0
-10 -4 -10 -10z"/>
<path d="M4041 1231 c-9 -6 -10 -11 -2 -15 13 -8 31 1 31 15 0 11 -11 11 -29
0z"/>
<path d="M4520 1225 c-20 -24 -5 -28 21 -6 19 16 20 20 8 21 -9 0 -22 -7 -29
-15z"/>
<path d="M4467 1154 c-33 -38 -14 -40 24 -2 16 16 22 28 15 31 -6 2 -23 -11
-39 -29z"/>
<path d="M675 1080 c21 -24 26 -25 19 -6 -3 8 -13 17 -22 21 -13 5 -13 2 3
-15z"/>
<path d="M4378 999 c-18 -23 -49 -60 -68 -82 -19 -22 -29 -37 -21 -33 11 8 30
27 96 100 38 43 47 56 37 56 -6 0 -26 -19 -44 -41z"/>
<path d="M4213 823 c-22 -21 -58 -53 -78 -71 -21 -18 -36 -35 -34 -37 3 -2 40
29 84 70 44 41 78 74 75 75 -3 0 -24 -17 -47 -37z"/>
<path d="M4069 693 c-13 -16 -12 -17 4 -4 9 7 17 15 17 17 0 8 -8 3 -21 -13z"/>
</g>
</svg>
